<svg width="126" height="176" viewBox="0 0 126 176" fill="none" xmlns="http://www.w3.org/2000/svg">
<circle cx="46" cy="43" r="43" fill="url(#paint0_linear_63_24)"/>
<circle cx="80.5" cy="56.5" r="45.5" fill="#D9D9D9"/>
<rect y="57" width="108" height="45" rx="22.5" fill="#D9D9D9"/>
<rect x="60.0234" y="108" width="10" height="48" rx="5" transform="rotate(27.3108 60.0234 108)" fill="#2DBCBA"/>
<path d="M88.7291 112.443C89.9961 109.989 93.0122 109.027 95.4658 110.294V110.294C97.9194 111.561 98.8814 114.577 97.6144 117.031L83.5574 144.253C82.2904 146.707 79.2743 147.669 76.8207 146.402V146.402C74.3671 145.135 73.4051 142.119 74.6721 139.665L88.7291 112.443Z" fill="#2DBCBA"/>
<path d="M23.2058 112.443C24.4728 109.989 27.4889 109.027 29.9425 110.294V110.294C32.3961 111.561 33.3581 114.577 32.0911 117.031L18.0341 144.253C16.7671 146.707 13.751 147.669 11.2974 146.402V146.402C8.84379 145.135 7.88184 142.118 9.14883 139.665L23.2058 112.443Z" fill="#2DBCBA"/>
<defs>
<linearGradient id="paint0_linear_63_24" x1="21.5" y1="5.5" x2="46" y2="86" gradientUnits="userSpaceOnUse">
<stop stop-color="#F7D94D"/>
<stop offset="1" stop-color="#F0B721"/>
</linearGradient>
</defs>
</svg>
