<svg width="141" height="183" viewBox="0 0 141 183" fill="none" xmlns="http://www.w3.org/2000/svg">
<path d="M68.776 51.2592C64.566 73.0615 43.511 87.301 21.7088 83.091C13.6788 81.5404 6.66889 77.717 1.253 72.4096C20.795 73.2776 38.581 59.6659 42.4033 39.8712C45.0628 26.0989 40.3571 12.5993 31.0274 3.48529C32.9956 3.57479 34.9834 3.81337 36.9442 4.192C58.7465 8.40203 72.986 29.4569 68.776 51.2592Z" fill="url(#paint0_linear_63_17)"/>
<circle cx="95.5" cy="63.5" r="45.5" fill="#D9D9D9"/>
<rect x="15" y="64" width="108" height="45" rx="22.5" fill="#D9D9D9"/>
<rect x="75.0234" y="115" width="10" height="48" rx="5" transform="rotate(27.3108 75.0234 115)" fill="#2DBCBA"/>
<path d="M103.729 119.443C104.996 116.989 108.012 116.027 110.466 117.294V117.294C112.919 118.561 113.881 121.577 112.614 124.031L98.5574 151.253C97.2904 153.707 94.2743 154.669 91.8207 153.402V153.402C89.3671 152.135 88.4051 149.119 89.6721 146.665L103.729 119.443Z" fill="#2DBCBA"/>
<path d="M38.2058 119.443C39.4728 116.989 42.4889 116.027 44.9425 117.294V117.294C47.3961 118.561 48.3581 121.577 47.0911 124.031L33.0341 151.253C31.7671 153.707 28.751 154.669 26.2974 153.402V153.402C23.8438 152.135 22.8818 149.118 24.1488 146.665L38.2058 119.443Z" fill="#2DBCBA"/>
<defs>
<linearGradient id="paint0_linear_63_17" x1="16.7285" y1="0.288324" x2="59.6651" y2="90.4203" gradientUnits="userSpaceOnUse">
<stop stop-color="#2E3192"/>
<stop offset="1" stop-color="#0E0F2C"/>
</linearGradient>
</defs>
</svg>
