<svg width="126" height="127" viewBox="0 0 126 127" fill="none" xmlns="http://www.w3.org/2000/svg">
<circle cx="80.5" cy="45.5" r="45.5" fill="#D9D9D9"/>
<rect y="46" width="108" height="45" rx="22.5" fill="#D9D9D9"/>
<mask id="mask0_63_9" style="mask-type:alpha" maskUnits="userSpaceOnUse" x="17" y="103" width="24" height="24">
<rect x="17" y="103" width="24" height="24" fill="#D9D9D9"/>
</mask>
<g mask="url(#mask0_63_9)">
<path d="M28 125V120.85L24.75 124.05L23.35 122.65L28 118V116H26L21.35 120.65L19.95 119.25L23.15 116H19V114H23.15L19.95 110.75L21.35 109.35L26 114H28V112L23.35 107.35L24.75 105.95L28 109.15V105H30V109.15L33.25 105.95L34.65 107.35L30 112V114H32L36.65 109.35L38.05 110.75L34.85 114H39V116H34.85L38.05 119.25L36.65 120.65L32 116H30V118L34.65 122.65L33.25 124.05L30 120.85V125H28Z" fill="white"/>
</g>
<mask id="mask1_63_9" style="mask-type:alpha" maskUnits="userSpaceOnUse" x="49" y="97" width="24" height="24">
<rect x="49" y="97" width="24" height="24" fill="#D9D9D9"/>
</mask>
<g mask="url(#mask1_63_9)">
<path d="M60 119V114.85L56.75 118.05L55.35 116.65L60 112V110H58L53.35 114.65L51.95 113.25L55.15 110H51V108H55.15L51.95 104.75L53.35 103.35L58 108H60V106L55.35 101.35L56.75 99.95L60 103.15V99H62V103.15L65.25 99.95L66.65 101.35L62 106V108H64L68.65 103.35L70.05 104.75L66.85 108H71V110H66.85L70.05 113.25L68.65 114.65L64 110H62V112L66.65 116.65L65.25 118.05L62 114.85V119H60Z" fill="white"/>
</g>
<mask id="mask2_63_9" style="mask-type:alpha" maskUnits="userSpaceOnUse" x="84" y="103" width="24" height="24">
<rect x="84" y="103" width="24" height="24" fill="#D9D9D9"/>
</mask>
<g mask="url(#mask2_63_9)">
<path d="M95 125V120.85L91.75 124.05L90.35 122.65L95 118V116H93L88.35 120.65L86.95 119.25L90.15 116H86V114H90.15L86.95 110.75L88.35 109.35L93 114H95V112L90.35 107.35L91.75 105.95L95 109.15V105H97V109.15L100.25 105.95L101.65 107.35L97 112V114H99L103.65 109.35L105.05 110.75L101.85 114H106V116H101.85L105.05 119.25L103.65 120.65L99 116H97V118L101.65 122.65L100.25 124.05L97 120.85V125H95Z" fill="white"/>
</g>
</svg>
