<svg width="77" height="91" viewBox="0 0 77 91" fill="none" xmlns="http://www.w3.org/2000/svg">
<g filter="url(#filter0_i_10_259)">
<path d="M68.776 51.2592C64.566 73.0615 43.511 87.301 21.7088 83.091C14.5998 81.7182 8.29025 78.5641 3.17849 74.176C2.48237 73.5784 2.95027 72.4594 3.86749 72.4399C22.3604 72.0457 38.7522 58.7792 42.4033 39.8712C44.8842 27.0235 40.9558 14.4131 32.8431 5.37895C32.2293 4.69539 32.7296 3.58897 33.6427 3.69034C34.7462 3.81285 35.8494 3.9806 36.9442 4.192C58.7465 8.40203 72.986 29.4569 68.776 51.2592Z" fill="url(#paint0_linear_10_259)"/>
<circle cx="25" cy="33" r="5" fill="#F0B721"/>
<circle cx="70" cy="12" r="2" fill="#F0B721"/>
<circle cx="32" cy="45" r="2" fill="#F0B721"/>
</g>
<defs>
<filter id="filter0_i_10_259" x="2.84399" y="3.68384" width="69.156" height="84.1447" filterUnits="userSpaceOnUse" color-interpolation-filters="sRGB">
<feFlood flood-opacity="0" result="BackgroundImageFix"/>
<feBlend mode="normal" in="SourceGraphic" in2="BackgroundImageFix" result="shape"/>
<feColorMatrix in="SourceAlpha" type="matrix" values="0 0 0 0 0 0 0 0 0 0 0 0 0 0 0 0 0 0 127 0" result="hardAlpha"/>
<feOffset dy="4"/>
<feGaussianBlur stdDeviation="2"/>
<feComposite in2="hardAlpha" operator="arithmetic" k2="-1" k3="1"/>
<feColorMatrix type="matrix" values="0 0 0 0 0 0 0 0 0 0 0 0 0 0 0 0 0 0 0.25 0"/>
<feBlend mode="normal" in2="shape" result="effect1_innerShadow_10_259"/>
</filter>
<linearGradient id="paint0_linear_10_259" x1="16.7285" y1="0.288324" x2="59.6651" y2="90.4203" gradientUnits="userSpaceOnUse">
<stop stop-color="#8B4DF7"/>
<stop offset="1" stop-color="#3B178D"/>
</linearGradient>
</defs>
</svg>
